<?xml version="1.0" encoding="UTF-8" standalone="no"?>
<!-- Created with Inkscape (http://www.inkscape.org/) -->
<svg
   xmlns:svg="http://www.w3.org/2000/svg"
   xmlns="http://www.w3.org/2000/svg"
   xmlns:xlink="http://www.w3.org/1999/xlink"
   version="1.0"
   width="440"
   height="440"
   id="svg2">
  <defs
     id="defs4">
    <linearGradient
       id="linearGradient16882">
      <stop
         id="stop16884"
         style="stop-color:#fdbe98;stop-opacity:1"
         offset="0" />
      <stop
         id="stop16886"
         style="stop-color:#fdbe98;stop-opacity:0"
         offset="1" />
    </linearGradient>
    <radialGradient
       cx="440.39789"
       cy="387.02914"
       r="28.789787"
       fx="440.39789"
       fy="387.02914"
       id="radialGradient9214"
       xlink:href="#linearGradient16882"
       gradientUnits="userSpaceOnUse"
       gradientTransform="matrix(1.2110402,-0.2138596,0.109277,0.6076779,-536.59678,233.80402)" />
    <radialGradient
       cx="440.39789"
       cy="387.02914"
       r="28.789787"
       fx="440.39789"
       fy="387.02914"
       id="radialGradient9217"
       xlink:href="#linearGradient16882"
       gradientUnits="userSpaceOnUse"
       gradientTransform="matrix(1.2424829,-0.3533812,0.178937,0.6291399,-400.27023,266.31174)" />
    <radialGradient
       cx="440.39789"
       cy="387.02914"
       r="28.789787"
       fx="440.39789"
       fy="387.02914"
       id="radialGradient16888"
       xlink:href="#linearGradient16882"
       gradientUnits="userSpaceOnUse"
       gradientTransform="matrix(1,0,0,0.506357,0,191.0544)" />
    <linearGradient
       id="linearGradient3139">
      <stop
         id="stop3141"
         style="stop-color:#fdbe98;stop-opacity:1"
         offset="0" />
      <stop
         id="stop3143"
         style="stop-color:#fdbe98;stop-opacity:0"
         offset="1" />
    </linearGradient>
    <radialGradient
       cx="440.39789"
       cy="387.02914"
       r="28.789787"
       fx="440.39789"
       fy="387.02914"
       id="radialGradient16892"
       xlink:href="#linearGradient16882"
       gradientUnits="userSpaceOnUse"
       gradientTransform="matrix(1,0,0,0.506357,0,191.0544)" />
    <radialGradient
       cx="440.39789"
       cy="387.02914"
       r="28.789787"
       fx="440.39789"
       fy="387.02914"
       id="radialGradient4397"
       xlink:href="#linearGradient16882"
       gradientUnits="userSpaceOnUse"
       gradientTransform="matrix(1,0,0,0.506357,0,191.0544)" />
    <radialGradient
       cx="440.39789"
       cy="387.02914"
       r="28.789787"
       fx="440.39789"
       fy="387.02914"
       id="radialGradient4399"
       xlink:href="#linearGradient16882"
       gradientUnits="userSpaceOnUse"
       gradientTransform="matrix(1,0,0,0.506357,0,191.0544)" />
    <radialGradient
       cx="440.39789"
       cy="387.02914"
       r="28.789787"
       fx="440.39789"
       fy="387.02914"
       id="radialGradient6001"
       xlink:href="#linearGradient16882"
       gradientUnits="userSpaceOnUse"
       gradientTransform="matrix(1.2110402,-0.2138596,0.109277,0.6076779,-536.59678,233.80402)" />
    <radialGradient
       cx="440.39789"
       cy="387.02914"
       r="28.789787"
       fx="440.39789"
       fy="387.02914"
       id="radialGradient6004"
       xlink:href="#linearGradient16882"
       gradientUnits="userSpaceOnUse"
       gradientTransform="matrix(1.2424829,-0.3533812,0.178937,0.6291399,-400.27023,266.31174)" />
  </defs>
  <g
     id="g6078">
    <path
       d="M 353.5625,423.1875 C 345.81901,428.83827 333.96032,434.75634 322.6875,440 L 363.90625,440 C 361.57925,431.76068 359.31559,422.5596 353.5625,423.1875 z"
       id="path5929"
       style="fill:#f0ebe1;fill-rule:evenodd" />
    <path
       d="M 67.59375,69.3125 C 10.106711,108.42581 28.933919,359.30871 0,124 L 0,424.0625 C 4.3342769,430.04208 9.3892871,434.92976 13.5,438.46875 C 14.110344,438.99409 14.736037,439.50535 15.375,440 L 222.875,440 C 241.10034,430.04585 262.70058,419.25703 279.1875,383.875 C 309.17179,400.8642 335.92557,410.04688 366.6875,345.375 C 374.95475,276.83172 342.30863,278.73194 336.125,277.9375 C 310.77682,282.39924 314.31079,284.64987 307.09375,288.25 C 287.16062,333.97178 266.01147,328.28966 258,327.875 C 258.00258,323.74266 258.71617,304.88234 258.71875,300.75 C 256.83924,299.52929 278.8181,280.70329 277.5625,233.15625 C 237.70918,328.41309 241.39385,120.14003 174.84375,90.90625 C 230.16459,332.87583 145.07671,129.01463 112.15625,82.625 C 89.642196,99.620664 161.95023,365.05798 67.59375,69.3125 z"
       id="path5803"
       style="fill:#fae6be;fill-rule:evenodd" />
    <path
       d="M 91.84375,67.3125 C 83.872421,67.351321 75.11375,67.599168 65.5,68.09375 C 38.374307,81.042128 16.938731,95.22339 0,109.1875 L 0,236.34375 C 0.7032684,237.18608 1.186335,238.0918 1.34375,238.75 C 4.689404,239.25637 13.726299,238.2208 18.90625,239.78125 C 19.25115,239.78125 19.593892,239.78125 19.9375,239.78125 C 18.548859,237.72606 17.97533,234.84608 16.84375,232.53125 C 15.953728,231.38675 15.090687,230.22638 14.21875,229.0625 C 28.656733,238.56855 31.448349,239.62668 40.625,237.71875 C 38.292085,241.61727 45.310601,243.63972 50.9375,242.875 C 57.327826,235.5701 54.588245,224.15463 54.0625,212.875 C 53.371408,198.02753 51.93602,121.3756 71.625,101.25 C 77.158891,90.580082 89.291451,148.31552 93.5,161.5625 C 98.696743,177.91875 116.50772,218.38973 135.71875,222.1875 C 136.63849,222.99099 138.04304,223.32751 139.84375,223.25 C 144.99012,217.71611 152.67306,214.66581 159.5,210.8125 C 159.5,207.71099 159.5,204.60022 159.5,201.5 C 167.22471,204.26824 170.68926,206.24733 174.65625,208.03125 C 181.77771,209.86684 210.96468,213.48323 218.4375,214.96875 C 223.17439,207.30215 221.67161,193.38498 226.6875,186 C 241.15133,201.88345 237.25964,249.59815 257.6875,268.71875 C 259.52308,273.37684 258.83071,281.4772 257.6875,286.28125 C 256.49778,287.50196 256.83924,299.5267 258.71875,300.75 C 253.46517,327.15872 257.44175,332.90595 278.5,325.375 C 280.2496,381.5063 242.24656,419.4651 207.0625,440 L 227.40625,440 C 263.49855,420.9347 271.26869,403.86767 282.40625,386.65625 C 308.74779,405.21236 312.47135,394.21192 321.59375,395.3125 C 348.09417,387.40306 366.79158,357.51241 369.875,330.71875 C 369.62958,314.80558 373.89081,303.90277 353.0625,281.3125 C 354.90972,276.00855 285.66603,227.07557 285.75,226.59375 C 286.8454,214.12569 188.09154,92.311825 187,91.25 C 166.0388,77.413007 147.64306,67.040754 91.84375,67.3125 z"
       id="path5806"
       style="fill:#e6af78;fill-rule:evenodd" />
    <path
       d="M 87.306348,375.08458 C 80.713214,365.67154 85.097441,361.37128 91.441266,349.24425 C 102.87462,348.49115 101.29738,360.74865 102.81003,369.91626 C 98.294044,372.29051 94.100997,374.98641 87.306348,375.08458 L 87.306348,375.08458 z"
       id="path5812"
       style="fill:#e6af78;fill-rule:evenodd" />
    <path
       d="M 0,426.46875 L 0,430.9375 C 1.5865832,431.83751 3.2448115,432.6455 5.0625,433.34375 C 3.3765211,431.39918 1.663089,429.09857 0,426.46875 z"
       id="path5995"
       style="fill:#5f8291;fill-rule:evenodd" />
    <path
       d="M 281.5625,386.28125 C 257.95434,418.91297 241.62745,433.03998 230.03125,440 L 245.09375,440 C 267.35814,430.07686 282.84544,418.59241 295.28125,402.4375 L 299.5,396.46875 C 291.55956,394.9884 286.72954,389.67213 281.5625,386.28125 z"
       id="path6034"
       style="fill:#5f8291;fill-rule:evenodd" />
    <path
       d="M 301.9375,393.96875 C 301.76477,393.95916 301.57063,394.0199 301.40625,394.1875 C 288.0921,407.78456 275.87454,422.07931 258.875,431.1875 C 252.91102,434.38201 246.76267,437.27947 240.5625,440 L 247.0625,440 C 251.24815,438.04812 255.38655,436.00467 259.46875,433.84375 C 277.016,424.5547 289.67493,410.05306 302.4375,395.1875 C 302.88607,394.66627 302.4557,393.99751 301.9375,393.96875 z"
       id="path6337"
       style="fill:#231f20" />
    <path
       d="M 388.7872,92.414281 C 388.14134,104.68598 397.18364,147.95988 412.68476,146.02225"
       id="path6425"
       style="fill:none" />
    <path
       d="M 419.14356,87.247245 C 443.04108,73.683786 427.53996,11.67939 408.80948,0.053555743 C 408.16359,-0.59231937 408.16359,-0.59231937 406.87184,-0.59231937 C 406.87184,-1.2381945 406.87184,-1.8840813 406.87184,-1.8840813 C 404.9342,-2.5299564 403.64244,-1.8840813 402.35069,-1.8840813"
       id="path6441"
       style="fill:none" />
    <path
       d="M 349.17287,346.02906 C 359.9371,329.2362 359.50694,293.06696 328.93488,295.22034 C 314.95161,296.20464 298.03732,312.83734 303.09972,327.5143 C 307.40646,340.0017 300.08606,348.61257 293.62726,362.82192"
       id="path6458"
       style="fill:none" />
    <path
       d="M 82.31757,369.81936 C 81.348758,374.01758 87.484583,375.63228 87.484583,375.63228 C 85.546981,371.757 83.609332,367.55879 84.901082,363.68351"
       id="path6498"
       style="fill:none" />
    <path
       d="M 82.303355,369.8155 C 81.476638,373.24642 84.221613,375.33518 87.303765,376.28978 C 87.926395,376.48225 88.303578,375.79503 88.073654,375.28866 C 87.143575,373.24897 86.240642,371.20801 85.663228,369.03786 C 85.160722,367.14802 85.744596,365.38864 85.398413,363.54659 C 85.327371,363.17327 84.784824,363.04409 84.538103,363.32053 C 81.662654,366.54346 85.255021,372.92476 86.896854,375.97719 C 87.153924,375.64391 87.409686,375.31063 87.666744,374.97607 C 85.310574,374.41415 82.065675,372.67932 82.334367,369.82067 C 82.334367,369.80257 82.307221,369.7987 82.303355,369.8155 L 82.303355,369.8155 z"
       id="path6500"
       style="fill:#231f20" />
    <path
       d="M 200.83639,347.53654 C 196.31524,352.05769 193.08585,357.87062 193.08585,363.68351"
       id="path6506"
       style="fill:none" />
    <path
       d="M 237.00563,348.82829 C 229.90097,347.53654 224.08805,356.57885 222.1504,361.74587"
       id="path6522"
       style="fill:none" />
    <path
       d="M 20.959061,382.09108 C 20.147833,377.61773 23.370761,373.10819 26.126085,369.81936"
       id="path6530"
       style="fill:none" />
    <path
       d="M 83.286406,395.33159 C 106.53803,389.51868 129.78968,384.99752 153.04134,377.89286"
       id="path6538"
       style="fill:none" />
    <path
       d="M 95.55808,419.22912 C 97.172791,406.63447 102.01688,398.88394 112.67389,388.8728"
       id="path6546"
       style="fill:none" />
    <path
       d="M 153.04134,378.53873 C 153.04134,381.12224 157.56249,388.8728 158.85426,393.39395 C 163.37541,405.66566 164.66715,414.0621 163.37541,426.33378 C 160.7919,445.71015 156.59369,460.24245 135.92554,462.50302 C 105.64027,465.8151 94.589279,416.32267 87.807555,394.68573"
       id="path6554"
       style="fill:none" />
    <path
       d="M 34.52252,368.85056 C 32.584871,372.07994 31.293109,376.60109 31.293109,380.47637"
       id="path6562"
       style="fill:none" />
    <path
       d="M 44.533654,366.58998 C 41.304243,369.17349 40.01247,376.27816 41.304243,380.79931"
       id="path6570"
       style="fill:none" />
    <path
       d="M 249.0616,166.69039 C 241.95693,158.07824 231.19271,150.97355 221.72025,146.23797 C 211.14462,140.94951 201.69801,135.9039 190.07216,134.39642 C 180.38399,133.10466 171.34169,133.10466 160.36172,133.75055 C 155.76694,134.02052 149.81324,136.97994 145.72224,139.1333 C 142.70858,140.64078 136.67993,147.314 134.95802,149.89752"
       id="path6578"
       style="fill:none" />
    <path
       d="M 356.0625,431.125 C 355.7957,431.11217 355.53879,431.16918 355.28125,431.25 C 353.09202,432.47779 353.85913,435.66692 353.0625,440 L 363.53125,440 C 361.29144,435.16986 358.51064,431.24271 356.0625,431.125 z"
       id="path5941"
       style="fill:#c8c3b9;fill-rule:evenodd" />
    <path
       d="M 353.25,433.65625 C 353.19591,433.66287 353.14979,433.68542 353.15625,433.75 C 353.36039,435.8907 353.02308,437.97045 352.46875,440 L 353.53125,440 C 353.86883,438.00905 353.91373,435.96701 353.375,433.71875 C 353.36015,433.6574 353.30409,433.64963 353.25,433.65625 z"
       id="path7053"
       style="fill:#231f20" />
    <path
       d="M 354.625,422.9375 C 349.07733,422.95483 342.68571,427.33314 338.53125,429.84375 C 332.10992,433.7229 325.53357,436.90938 318.65625,439.90625 C 318.58538,439.93713 318.50875,439.96931 318.4375,440 L 324.75,440 C 327.42858,438.81095 330.09939,437.59064 332.71875,436.28125 C 340.09212,432.59586 356.05157,418.30683 360.875,431.28125 C 361.90269,434.04557 362.34027,437.10025 363.0625,440 L 365.875,440 C 364.75007,435.20562 364.44495,430.04216 361.375,426.1875 C 359.49065,423.82157 357.14667,422.92962 354.625,422.9375 z"
       id="path7061"
       style="fill:#231f20" />
    <path
       d="M 0,0 L 0,193.71875 C 0.43763262,196.51759 0.93356399,199.39814 1.5,202.375 C 3.3898424,211.86685 31.27635,257.13932 40.4375,233.84375 C 31.123924,215.3897 31.549181,112.13952 67.1875,76 C 73.234219,83.790598 88.166112,222.18883 134.6875,222.84375 C 141.49506,208.62408 121.56339,165.0511 122,146.03125 C 117.77208,128.00477 112.09326,114.52457 114.3125,100.65625 C 157.11233,145.02815 152.11499,207.00135 171.0625,209.125 C 178.48365,209.17409 189.22864,208.36191 196.65625,209.65625 C 202.32319,167.43642 191.90777,127.71617 182.8125,110.125 C 208.08059,130.01421 211.77116,151.82012 217.1875,156.03125 C 237.77555,191.43835 232.45534,232.49603 255.375,262.625 C 264.79967,274.12293 273.35633,238.74221 278.1875,235.8125 C 281.40657,268.03541 256.46957,299.41155 257.875,320.4375 C 257.55466,338.57508 294.53894,326.01977 307.71875,288.09375 C 327.96706,275.42417 365.20976,264.07617 370.4375,321.5 C 376.00757,311.46044 383.09046,293.33696 383.65625,279.78125 C 385.39626,361.59475 378.62964,410.02066 372.53125,430.6875 C 371.59626,433.28834 370.7017,436.43863 369.84375,440 L 424.375,440 C 425.01593,436.53984 425.35163,433.90155 425.375,432.3125 C 435.68968,394.42653 435.89321,306.8854 439.3125,295.96875 C 439.54395,298.18199 439.76875,300.26327 440,302.4375 L 440,44.21875 C 430.15752,28.874059 416.12278,12.478092 395.6875,0 L 0,0 z M 0,236.1875 L 0,242.15625 C 0.94241454,242.07487 1.9339693,242.0399 3,242.0625 C 2.0750586,240.25381 1.04182,238.29708 0,236.1875 z"
       id="path5992"
       style="fill:#91b4c3;fill-rule:evenodd" />
    <path
       d="M 325.03125,4 C 336.17101,19.273698 341.48976,37.427919 351.0625,52.78125 C 343.08638,47.49106 332.07089,47.50412 312.21875,27.5625 C 302.29335,41.03114 332.82969,34.173605 355.1875,162.78125 C 340.56328,139.55968 322.41047,106.87158 311.34375,87.65625 C 314.45768,94.12146 327.7932,210.36391 290.96875,254.75 C 287.14279,244.25393 288.1411,217.03881 281.375,208.78125 C 276.43369,169.97446 278.4012,132.79375 249.59375,91.03125 C 228.0984,75.641852 236.12017,84.487975 248.34375,105.71875 C 260.85785,131.78059 264.47087,183.38216 253.53125,214.6875 C 243.93264,189.00046 228.79465,163.48839 211.1875,145.8125 C 234.19378,182.44953 230.98793,203.0964 241.0625,232.9375 C 253.91381,246.26865 253.79498,257.96946 258.5625,265.03125 C 265.11072,266.46826 272.72482,246.68406 278.1875,235 C 280.17699,272.01961 248.56421,318.46452 260.46875,326.90625 C 262.58144,330.76722 276.4855,328.58027 281.6875,324.53125 C 297.2805,312.39717 300.39691,306.6143 311.15625,286.21875 C 319.14408,282.42263 342.47684,270.16076 358.9375,286.375 C 368.65282,298.6284 371.02297,316.19604 371.5625,322.28125 C 378.21187,309.59337 388.32861,283.40346 383.53125,265.65625 C 383.53124,252.51184 384.08492,208.74116 384.15625,190.125 C 393.98958,197.227 398.01934,316.32802 401.90625,352.6875 C 406.68297,386.8034 398.25263,417.46019 392.78125,444 L 425,444 C 426.51201,437.32839 427.86477,430.90693 429,424.875 C 436.33278,397.18059 436.17111,364.15328 438,326.4375 L 438,36.75 C 430.44727,25.998485 419.9415,14.223122 405.71875,4 L 325.03125,4 z"
       id="path5998"
       style="opacity:1;fill:#5f8291;fill-rule:evenodd" />
    <path
       d="M 62.965308,78.847488 C 44.276149,94.384757 19.99626,123.82264 20.267529,158.05165 C 15.579739,186.3024 17.376574,219.42825 28.276431,236.8812 C 33.917539,244.24939 38.802969,237.99599 40.87495,236.22757 C 31.72155,214.65133 34.523374,189.69714 38.120921,161.5394 C 41.399403,131.5086 42.957264,108.28666 62.965308,78.847488 L 62.965308,78.847488 z"
       id="path6010"
       style="fill:#5f8291;fill-rule:evenodd" />
    <path
       d="M 105.81422,74.604062 C 100.41596,93.103333 97.937081,124.92451 102.714,147.97593 C 103.39863,159.69993 122.08134,202.69482 130.61598,222.41351 C 133.33643,226.45025 136.59553,221.5674 136.09691,211.22688 C 131.59514,187.45594 122.21051,156.1153 120.68494,146.74101 C 119.86468,136.78543 109.8148,110.82109 114.19644,99.200432 C 111.50442,93.967519 112.03404,76.740631 105.81422,74.604062 L 105.81422,74.604062 z"
       id="path6025"
       style="fill:#5f8291;fill-rule:evenodd" />
    <path
       d="M 145.88457,77.841209 C 143.45348,80.429892 192.28065,155.38933 178.15269,204.58595 C 168.5265,203.22444 164.92121,197.15834 158.47792,193.95607 C 159.53199,200.68226 160.52277,205.53152 169.00833,208.85263 C 177.95505,210.07592 186.54137,210.54096 195.72448,208.59686 C 202.20264,187.37844 197.73058,135.16298 177.27946,101.52043 C 164.43809,87.538438 149.20955,76.161923 145.88457,77.841209 L 145.88457,77.841209 z"
       id="path6028"
       style="fill:#5f8291;fill-rule:evenodd" />
    <path
       d="M 329.56872,6.8125867 C 328.94093,3.8480014 327.48641,4.5713861 327.08725,6.8435889 C 327.84422,25.652882 326.97874,33.147663 322.89033,41.027389 C 318.88459,47.189076 311.62361,61.969374 297.82376,73.146959 C 298.05498,73.949141 298.56135,75.208605 299.56763,75.237024 C 316.55038,63.17071 319.90766,50.524396 325.02431,43.922219 C 331.38881,31.831361 330.44582,14.750441 329.56872,6.8125867 L 329.56872,6.8125867 z"
       id="path6037"
       style="fill:#dee9ed;fill-rule:evenodd" />
    <path
       d="M 40.84375,138.4375 C 27.988171,139.83776 11.227466,152.3054 7.59375,157.28125 C 6.596933,152.72185 3.6609838,148.65404 0,141.78125 L 0,150 C 4.0961087,157.29668 8.4962437,164.84823 10.6875,167.65625 C 14.711328,163.35986 24.049226,152.68882 39.65625,146.5 C 40.250459,144.68379 40.84375,139.12601 40.84375,138.4375 z"
       id="path6040"
       style="fill:#dee9ed;fill-rule:evenodd" />
    <path
       d="M 80.180571,130.68833 C 84.817983,134.32722 94.628888,144.33188 102.70367,147.97723 C 107.10727,148.74324 108.85373,152.16511 112.00691,154.17896 C 113.90192,150.93923 116.29555,137.84338 119.36606,142.27024 C 119.91247,143.10213 121.15385,146.16876 121.10864,147.59099 C 116.02557,151.33063 112.60112,160.66488 110.17132,166.13547 C 107.25066,163.00554 90.973212,151.00252 83.158074,145.30587 C 82.300347,140.30547 80.339457,136.38628 80.180571,130.68833 L 80.180571,130.68833 z"
       id="path6043"
       style="fill:#dee9ed;fill-rule:evenodd" />
    <path
       d="M 295.99592,81.824991 C 296.532,94.181951 298.5691,108.41584 292.06123,125.1144 C 290.2631,129.72726 288.54118,152.45834 280.49095,156.24706 C 274.43648,147.82997 274.18587,133.609 271.1877,122.13689 C 278.14253,126.20593 277.58191,137.793 283.59246,142.81019 C 290.29927,126.24727 292.73423,111.09882 295.99592,81.824991 L 295.99592,81.824991 z"
       id="path6049"
       style="fill:#dee9ed;fill-rule:evenodd" />
    <path
       d="M 400.39454,352.63954 C 398.00091,356.79254 400.03672,365.3724 399.36113,371.24473 C 396.16403,369.05908 396.84091,364.38808 396.25962,360.90808 C 391.97615,335.19692 385.92426,283.7294 385.92426,283.3845 C 385.92426,282.00748 385.92426,275.11595 385.92426,273.04914 C 391.74105,269.96055 388.6602,278.31693 390.05789,283.3845 C 390.62368,285.4371 392.6582,286.85029 393.1594,289.58623 C 394.56096,297.23085 396.54122,317.27765 397.29302,326.79791 C 397.66763,331.54254 398.0022,358.88131 399.36113,342.30159 C 406.4658,319.23854 408.64629,287.56334 408.66308,260.64438 C 411.60312,262.65178 410.09952,279.42009 409.69649,284.4179 C 407.7356,308.75334 405.61453,333.92842 400.39454,352.63954 L 400.39454,352.63954 z"
       id="path6055"
       style="fill:#dee9ed;fill-rule:evenodd" />
    <path
       d="M 220.60116,145.65852 C 219.18022,138.984 211.92312,136.54387 208.13698,132.47225 C 206.17351,130.36281 204.97992,125.90366 202.96995,124.205 C 199.68759,121.4303 196.64937,118.69306 196.76822,115.93516 C 210.41177,121.58919 227.03153,133.2163 237.08141,145.9117 C 243.89802,135.15652 245.34995,98.019765 245.34995,96.296559 C 248.70207,94.564312 248.68527,93.656205 250.51828,97.329966 C 253.54229,102.2309 257.3336,107.93272 259.12656,114.0634 C 258.02856,118.92816 251.06986,105.1464 248.45017,101.46488 C 245.93125,118.70082 245.44684,146.33669 236.67967,154.79254 C 230.27643,151.20016 227.0199,149.23281 220.60116,145.65852 L 220.60116,145.65852 z"
       id="path6061"
       style="fill:#dee9ed;fill-rule:evenodd" />
    <path
       d="M 177.85558,102.12756 C 177.5714,106.87864 175.85852,128.26112 177.18387,135.57505 C 177.16191,135.57505 177.13995,135.57505 177.11928,135.57505 C 176.92939,140.8971 171.71973,150.15513 171.95225,152.10956 C 164.45617,149.59322 161.29266,139.84948 150.61369,136.47283 C 142.26248,134.48352 142.29735,124.04224 132.13897,124.73333 C 133.97972,129.30615 138.00226,136.14472 140.02515,140.08717 C 159.69863,148.68511 170.44218,167.43369 177.11799,158.31129 C 182.54983,144.04124 181.57197,118.45021 181.75799,110.45036 C 181.13277,107.28684 178.7624,105.01205 177.85558,102.12756 L 177.85558,102.12756 z"
       id="path6064"
       style="fill:#dee9ed;fill-rule:evenodd" />
    <path
       d="M 327.65625,0 C 334.96497,4.5496233 342.08564,9.4563665 348.875,14.75 C 351.38746,16.709597 353.83158,18.764267 356.21875,20.875 C 357.19402,21.736603 358.15464,22.629603 359.09375,23.53125 C 360.03287,24.432897 361.03069,24.428193 361.9375,25.21875 C 362.41288,25.632113 363.2987,25.068374 362.875,24.5 C 362.21491,23.615147 362.23993,22.664016 361.46875,21.84375 C 360.46765,20.776758 359.34542,19.81386 358.25,18.84375 C 355.67423,16.55992 352.97303,14.418066 350.25,12.3125 C 344.60037,7.9409477 338.7301,3.8582186 332.71875,0 L 327.65625,0 z"
       id="path6217"
       style="fill:#231f20" />
    <path
       d="M 370.74481,321.71226 C 374.76864,316.99992 376.73727,310.42617 378.66199,304.66234 C 380.12039,300.29749 381.32689,295.8448 382.328,291.35335 C 383.16377,287.59821 384.12613,283.63252 383.36012,279.80116 C 383.26453,279.31675 382.5476,279.35809 382.42618,279.80116 C 381.43927,283.40517 381.16155,287.16418 380.43687,290.83278 C 379.59981,295.07103 378.46694,299.246 377.26173,303.39254 C 376.17278,307.13477 374.9314,310.8447 373.54663,314.48875 C 372.65273,316.84491 372.00815,319.45943 370.47096,321.50299 C 370.35341,321.6593 370.61692,321.86081 370.74481,321.71226 L 370.74481,321.71226 z"
       id="path6329"
       style="fill:#231f20" />
    <path
       d="M 276.0625,0 C 280.01864,2.8906748 283.85351,5.9796152 287.53125,9.21875 C 297.30857,17.830903 305.98801,27.787818 314.75,37.40625 C 324.36326,47.959918 333.63447,58.817196 342.3125,70.15625 C 350.61852,81.009606 358.56229,92.124457 364.5625,104.4375 C 370.07574,115.75201 374.2065,127.81582 380.65625,138.65625 C 380.98308,139.20525 381.62633,139.58963 382.28125,139.5625 C 382.20373,139.56508 383.55187,141.59395 383.6875,141.78125 C 384.42767,142.80434 386.10509,141.89087 385.40625,140.78125 C 385.27192,140.56553 384.02768,138.45345 383.90625,138.65625 C 384.24987,138.07754 384.23823,137.35995 383.90625,136.78125 C 375.53696,122.14561 370.48432,105.85407 361.84375,91.34375 C 352.45783,75.581711 340.4046,61.033609 328.46875,47.15625 C 316.81579,33.608288 304.7994,19.813731 291.59375,7.75 C 288.63574,5.0475982 285.56651,2.4615127 282.40625,0 L 276.0625,0 z"
       id="path6129"
       style="fill:#231f20" />
    <path
       d="M 248.80928,92.746808 C 258.41609,108.92221 266.91069,126.31573 270.93452,144.7995 C 273.14859,154.96564 274.06187,165.55031 275.10561,175.89083 C 276.15322,186.25848 276.84431,196.66101 277.24218,207.07388 C 278.03661,227.77689 278.56881,249.13094 271.81033,268.99689 C 266.02455,286.00418 256.18264,301.88506 256.27306,320.34558 C 256.28986,323.77778 256.7213,327.5368 260.13413,329.23675 C 265.26499,331.79185 273.63042,329.45377 278.5236,327.5355 C 286.24702,324.50762 292.07802,318.14313 296.89111,311.62233 C 302.49993,304.02421 306.99912,295.66266 310.98678,287.12285 C 314.5572,279.47435 317.46107,271.53907 321.13096,263.93708 C 323.97412,258.04666 326.94258,252.23891 329.14115,246.0656 C 331.95976,238.15229 333.02417,229.88891 333.63259,221.55319 C 334.31981,212.11948 335.15557,202.69611 335.5121,193.24173 C 335.77949,186.16677 335.83762,179.01689 335.1362,171.96647 C 334.82488,168.84041 334.45157,165.72082 334.05371,162.6051 C 333.74497,160.18822 332.8795,158.04906 332.30337,155.66319 C 332.05019,154.61428 330.30502,154.82096 330.39932,155.92025 C 330.46391,156.66818 330.52204,157.41481 330.57758,158.16274 C 330.64217,159.03338 330.24819,159.92728 330.35669,160.75142 C 330.60859,162.64772 330.84498,164.54532 331.07104,166.44549 C 331.55028,170.49903 331.96106,174.53707 332.0954,178.61773 C 332.39767,187.88093 331.93393,197.14155 331.27384,206.37891 C 330.58275,216.06193 330.29598,225.95292 328.39193,235.48739 C 326.97099,242.59077 324.31514,249.28725 321.19296,255.79512 C 313.93069,270.92936 308.22887,286.86191 299.55601,301.28181 C 294.69254,309.36822 288.95326,317.41458 280.78934,322.42918 C 276.98382,324.76727 272.59314,325.74513 268.21408,326.32513 C 266.12918,326.60027 262.82099,327.08985 261.05774,325.56945 C 259.92745,324.59546 259.93649,322.67203 259.87965,321.31827 C 259.70268,317.06322 260.11475,312.81979 260.95439,308.65129 C 262.74477,299.7627 267.0502,291.85585 270.19693,283.44521 C 273.75055,273.95079 277.24993,264.8426 279.09197,254.82501 C 280.92498,244.85393 281.12649,234.80147 281.11745,224.69346 C 281.09807,203.81348 279.64355,182.95029 277.02904,162.23953 C 275.82899,152.73735 274.43906,143.41474 271.49514,134.27296 C 268.67007,125.50063 264.79092,116.9014 260.06179,108.99713 C 256.67738,103.34052 253.18705,97.778206 249.2291,92.501374 C 249.04567,92.258523 248.64523,92.470371 248.80928,92.746808 L 248.80928,92.746808 z"
       id="path6193"
       style="fill:#231f20" />
    <path
       d="M 179.95986,106.78305 C 186.06342,111.74857 190.90363,119.19814 195.3912,125.59364 C 200.42518,132.76806 204.82233,140.37135 209.06317,148.03406 C 213.30789,155.70452 217.79417,163.36078 221.08557,171.50014 C 224.40022,179.69635 226.62979,188.3085 228.64494,196.90128 C 232.62614,213.88532 235.61139,231.19617 243.17593,247.06671 C 245.85116,252.68069 249.07151,259.42367 253.59137,263.80919 C 258.02598,268.11333 262.57555,265.55307 265.47297,261.14688 C 267.17163,258.56207 268.37813,255.67628 269.88174,252.97909 C 271.33109,250.37878 273.14343,247.94769 274.72712,245.42618 C 276.62988,242.39442 278.30529,239.25158 279.6371,235.92659 C 280.28039,234.32481 280.70667,232.65715 280.96631,230.95203 C 281.25567,229.07123 280.76222,228.12179 280.36048,226.34045 C 280.00266,224.74642 277.77567,225.47368 277.98106,226.99666 C 278.15028,228.25613 277.56253,230.43274 277.31064,231.65216 C 276.92053,233.54846 276.14806,235.37113 275.33942,237.11888 C 273.69242,240.67897 271.51581,244.00525 269.34436,247.26306 C 267.79038,249.59598 266.35007,251.89401 265.06735,254.39098 C 263.81564,256.82853 262.15315,261.37164 259.35003,262.40247 C 256.63346,263.40229 253.8381,258.59824 252.72719,256.8647 C 250.91872,254.04221 249.21748,251.0647 247.63507,248.11433 C 243.38907,240.19973 240.6092,231.58111 238.29695,222.93279 C 233.72413,205.817 231.30725,188.1367 224.90659,171.53761 C 221.87612,163.68242 217.64691,156.36978 213.62825,148.99384 C 209.43003,141.2885 205.05743,133.66971 200.17071,126.37773 C 197.47222,122.34874 194.55673,118.49413 191.23949,114.95601 C 187.97134,111.46826 184.27433,108.93771 180.42877,106.17851 C 180.07224,105.92274 179.62013,106.50791 179.95986,106.78305 L 179.95986,106.78305 z"
       id="path6201"
       style="fill:#231f20" />
    <path
       d="M -4.7357442,146.01634 C -5.1038953,160.97361 -3.999442,176.27319 -1.6148561,191.03928 C 0.62117748,204.8921 5.845048,219.26162 15.039784,230.03488 C 18.943477,234.609 23.837949,238.94026 29.729659,240.62084 C 33.891704,241.80796 40.723814,240.88952 41.400695,235.72508 C 42.160249,229.91475 39.115575,223.91582 37.556423,218.45943 C 36.521724,214.83605 36.534642,210.83935 36.365421,207.09971 C 36.127738,201.88617 36.358963,196.69072 36.543684,191.48106 C 36.935087,180.40811 38.1713,169.37649 39.557356,158.39009 C 40.945996,147.37785 42.12408,136.24548 44.38724,125.37146 C 46.292584,116.21418 50.070977,107.70666 53.994047,99.262437 C 57.569634,91.567432 61.885398,83.243342 68.990069,78.240362 C 68.137509,77.892879 67.284948,77.546688 66.433679,77.199205 C 67.985081,86.808595 70.308954,96.257807 72.528195,105.72898 C 74.805565,115.45463 76.35955,125.32366 78.648546,135.04027 C 82.884221,153.01637 89.109205,170.96665 96.367594,187.9481 C 99.591823,195.49197 103.46581,202.74778 108.52046,209.22982 C 111.96558,213.64893 116.40406,217.1328 121.00918,220.27565 C 124.43104,222.61114 130.10703,226.26811 134.27812,223.67555 C 138.36137,221.13854 136.8035,213.76389 136.17054,209.99067 C 134.98729,202.93508 132.81455,196.04614 131.46596,189.01122 C 129.40173,178.24571 127.57131,167.43886 124.95162,156.79089 C 120.00031,136.67305 111.67106,115.59284 116.58232,94.579813 C 115.38357,94.579813 114.18611,94.579813 112.98736,94.579813 C 114.27912,101.7284 117.30829,107.33593 121.91987,112.85819 C 124.40004,115.82924 126.90347,118.68531 128.8889,122.0258 C 131.11073,125.76673 132.7758,129.83319 134.48221,133.82601 C 138.20506,142.53763 142.3219,150.9276 145.30844,159.95053 C 148.29886,168.98767 150.62403,178.22891 153.20625,187.38748 C 156.04424,197.45028 160.21404,208.17962 170.62303,212.35329 C 176.66975,214.77792 183.67108,213.88273 189.81985,212.42176 C 192.58421,211.76554 195.51779,211.02924 197.24229,208.57619 C 198.90478,206.21227 199.27294,203.3549 199.39307,200.53241 C 199.59588,195.7697 199.15151,191.0212 199.38919,186.24427 C 199.73797,179.23648 199.89169,172.20415 199.28844,165.2067 C 198.61801,157.41481 197.12345,149.55059 195.39766,141.93309 C 193.13967,131.96717 189.86248,122.22473 185.31549,113.06487 C 182.80173,107.99989 179.78159,103.19584 176.33389,98.717315 C 172.96369,94.338254 168.92566,91.002934 164.58923,87.597859 C 163.43569,86.692336 161.7874,88.241155 162.94094,89.244851 C 164.35542,90.477188 165.72081,91.752154 167.04486,93.080081 C 168.20615,94.245247 168.75515,95.614511 169.84927,96.806804 C 172.60459,99.80885 175.02276,103.09508 177.24329,106.50533 C 181.26453,112.68251 184.38542,119.41903 186.91727,126.32994 C 190.88426,137.16133 193.17067,148.51072 194.82283,159.90015 C 195.99187,167.9646 196.02546,176.02517 195.69218,184.1555 C 195.55396,187.52699 195.30336,190.84681 195.44158,194.22088 C 195.57722,197.56137 195.91436,200.99744 195.11735,204.28109 C 194.18728,208.11116 190.126,208.48964 186.83589,209.20657 C 183.14404,210.01133 179.24035,210.32006 175.49167,209.73231 C 169.9849,208.86813 165.72597,205.5341 162.7588,200.93673 C 158.55542,194.42885 156.87614,186.41737 154.8597,179.05305 C 151.7246,167.60549 148.47196,156.20831 143.83842,145.26066 C 141.8039,140.45273 139.4064,135.80886 137.34992,131.0074 C 135.24952,126.10776 133.08324,121.22749 130.01919,116.84068 C 127.57002,113.33356 124.46205,110.32247 121.92374,106.87864 C 118.99274,102.9039 117.45942,98.408584 116.58361,93.586451 C 116.25034,91.752154 113.39168,91.851619 112.98865,93.586451 C 108.58375,112.51846 114.2972,132.44771 119.47328,150.60079 C 124.58476,168.52652 126.81046,187.07487 131.42333,205.10524 C 132.09117,207.7133 135.68226,219.75248 131.71527,220.91119 C 129.53607,221.54803 126.41777,219.39854 124.67777,218.36643 C 122.02837,216.79436 119.56887,214.89418 117.18686,212.9475 C 105.17739,203.13143 99.303761,186.84752 94.192273,172.70406 C 88.54729,157.08412 83.101237,141.30013 80.065605,124.93355 C 77.04289,108.63027 72.435188,92.640883 69.790959,76.271722 C 69.619155,75.206022 68.094881,74.62473 67.234569,75.230565 C 61.171056,79.501118 57.071015,85.739019 53.620729,92.191352 C 49.817792,99.303773 46.439844,106.96261 43.798199,114.58527 C 40.726397,123.4519 39.63357,132.91145 38.456778,142.17336 C 37.122392,152.65985 35.68854,163.13084 34.6603,173.65221 C 33.652729,183.94882 32.995224,194.37589 33.21999,204.72417 C 33.309121,208.82421 33.435714,213.09605 34.146181,217.14442 C 34.648675,220.01084 35.736335,222.77391 36.608272,225.54085 C 37.526712,228.45635 38.439985,231.47519 38.424484,234.55733 C 38.4064,238.01278 33.809032,238.27242 31.200972,237.82289 C 24.797726,236.71715 19.478265,230.95849 15.586197,226.16348 C 7.0864278,215.69507 2.7809974,201.54515 0.70385002,188.42476 C -0.46131597,181.06561 -1.043899,173.60571 -1.8693325,166.20135 C -2.6198441,159.47775 -3.5731617,152.77869 -3.8082617,146.01117 C -3.8328051,145.42213 -4.7215348,145.42084 -4.7357442,146.01634 L -4.7357442,146.01634 z"
       id="path6209"
       style="fill:#231f20" />
    <path
       d="M 376.875,7.90625 C 376.66138,7.9052812 376.45389,8.0640843 376.46875,8.34375 C 377.45954,26.730637 377.41131,45.182319 377.71875,63.59375 C 378.04943,83.322774 378.10687,103.04965 378.28125,122.78125 C 378.45821,142.61104 378.67253,162.46439 379.40625,182.28125 C 380.19423,203.59009 381.25833,224.87219 381.8125,246.1875 C 382.35376,267.02614 381.85111,287.79152 381.46875,308.625 C 381.12255,327.45625 381.04483,346.29221 379.8125,365.09375 C 378.47553,385.4919 374.98358,405.33417 370.8125,425.3125 C 369.79311,430.19704 368.83704,435.10317 367.875,440 L 371.15625,440 C 372.13495,434.97645 373.13263,429.98353 374.15625,424.96875 C 378.13487,405.47354 381.4812,386.1237 382.875,366.25 C 384.19389,347.46137 384.21994,328.60476 384.53125,309.78125 C 384.87743,288.99041 385.38524,268.26476 384.875,247.46875 C 384.35314,226.15215 383.27198,204.83751 382.4375,183.53125 C 381.66115,163.68339 381.42156,143.82824 381.21875,123.96875 C 381.01725,104.22681 380.85191,84.489358 380.40625,64.75 C 379.97998,45.885162 378.82798,27.147876 377.34375,8.34375 C 377.32437,8.070543 377.08862,7.9072188 376.875,7.90625 z M 425.125,344.1875 C 424.28487,344.18944 423.42255,344.73841 423.34375,345.8125 C 422.15535,362.16359 421.20425,378.6929 418.25,394.84375 C 416.81614,402.68601 414.41285,410.36904 412.46875,418.09375 C 410.63567,425.3781 408.93854,432.68069 407.25,440 L 410.8125,440 C 413.81047,427.30641 416.92017,414.61819 420.15625,401.96875 C 424.79754,383.8286 425.34278,364.39057 426.6875,345.8125 C 426.76565,344.73066 425.96513,344.18556 425.125,344.1875 z"
       id="path6281"
       style="fill:#231f20" />
    <path
       d="M 406.96875,113.15625 C 406.8735,113.13984 406.74662,113.23718 406.8125,113.34375 C 410.80402,119.78446 413.90346,127.11592 416.8125,134.125 C 419.78612,141.28651 422.33089,148.60905 424.46875,156.0625 C 429.01444,171.91108 431.88728,188.25713 433.75,204.625 C 437.4496,237.16051 437.31174,270.02022 435.75,302.6875 C 434.87418,321.01498 433.83398,339.33008 432.9375,357.65625 C 431.93123,378.25074 430.61696,398.86243 427.65625,419.28125 C 426.6472,426.23805 425.34499,433.13918 423.875,440 L 427.5,440 C 433.9365,408.10127 435.69273,375.54936 437.21875,343 C 438.18372,322.42171 439.43076,301.88357 440,281.3125 L 440,241.96875 C 439.19552,218.8148 436.88319,195.63146 431.8125,173 C 429.38657,162.17636 426.15916,151.52156 422.125,141.1875 C 418.19288,131.11436 412.92296,122.1913 407.03125,113.21875 C 407.00897,113.1842 407.0005,113.16172 406.96875,113.15625 z"
       id="path6297"
       style="fill:#231f20" />
    <path
       d="M 249.15418,166.88211 C 242.56105,158.20924 233.23068,151.95842 223.7608,146.8056 C 212.50054,140.6775 200.89151,135.38646 188.10439,133.62579 C 168.37279,130.90793 145.72826,130.87435 133.55086,149.24832 C 132.30689,151.12395 135.19527,152.65339 136.4909,150.96635 C 142.14622,143.60979 148.18906,138.83933 157.10994,135.82953 C 162.36998,134.05465 169.11684,134.55457 174.64298,134.46285 C 180.52694,134.36468 186.42898,134.79742 192.25481,135.59831 C 203.23863,137.10708 213.4164,142.89545 223.17563,147.8093 C 232.8832,152.69731 241.55089,159.12122 249.10122,166.92474 C 249.12835,166.95186 249.17873,166.9144 249.15418,166.88211 L 249.15418,166.88211 z"
       id="path6580"
       style="fill:#231f20" />
    <path
       d="M 0,174.9375 L 0,178.46875 C 0.63323219,178.515 1.2687596,178.55725 1.90625,178.625 C 5.1201448,178.96732 9.641233,180.8721 12.8125,179.53125 C 12.880963,179.50284 12.884043,179.40834 12.875,179.34375 C 12.295001,175.29409 5.0284298,175.45027 1.90625,175.09375 C 1.272596,175.02139 0.63086099,174.96625 0,174.9375 z"
       id="path6588"
       style="fill:#231f20" />
    <path
       d="M 339.1875,274.90625 C 327.47444,274.74884 314.85933,281.52861 307.1875,289.125 C 306.54938,289.75537 307.50391,290.73213 308.15625,290.125 C 321.2508,277.95663 344.14741,271.88914 356.5625,288.15625 C 368.99052,304.44017 371.63828,324.63784 365.96875,344 C 361.3507,359.77368 351.1641,375.08991 338.625,385.6875 C 322.09954,399.65527 299.49754,396.54287 283.0625,384.3125 C 282.3404,383.77514 281.37928,384.20692 280.9375,384.84375 C 267.39988,404.28085 253.76406,422.63841 233.53125,435.71875 C 231.13019,437.27111 228.67986,438.69041 226.1875,440 L 233.3125,440 C 240.28797,435.6969 246.77594,430.62343 252.78125,425.0625 C 264.62482,414.09481 272.93937,400.58943 282.5625,387.84375 C 299.17551,400.68112 319.77937,403.49921 338.0625,391.46875 C 354.38386,380.73037 366.16828,360.12451 371.09375,341.65625 C 376.5889,321.05011 371.34738,297.01471 356,281.75 C 351.20213,276.97788 345.32291,274.9887 339.1875,274.90625 z M 0,422.40625 L 0,428.15625 C 2.8609676,432.55885 6.3418676,436.5694 10.65625,440 L 16.90625,440 C 14.994285,438.851 13.165498,437.61386 11.4375,436.21875 C 6.6229121,432.33139 2.9245858,427.60691 0,422.40625 z"
       id="path6452"
       style="fill:#231f20" />
    <path
       d="M 349.94139,346.06782 C 360.38267,330.19469 360.14628,299.26225 337.51339,294.55637 C 323.63086,291.67187 310.02477,300.61988 303.96255,312.78825 C 300.303,320.13448 303.03248,325.70325 303.98192,333.17607 C 305.32923,343.78915 296.88629,353.14148 293.62977,362.62816 C 293.35463,363.42646 294.54175,363.876 294.95641,363.18749 C 301.38291,352.52273 308.61675,339.95263 304.81252,327.23398 C 299.93872,310.94103 317.98717,296.36354 332.85401,296.18786 C 359.2976,295.87526 359.55337,329.06828 349.80963,345.98902 C 349.76055,346.07686 349.88843,346.1492 349.94139,346.06782 L 349.94139,346.06782 z"
       id="path6460"
       style="fill:#231f20" />
    <path
       d="M 111.86526,388.96453 C 102.49613,398.69534 96.976451,411.01871 94.657744,417.34058 C 91.703493,404.90095 90.240629,398.50049 87.697156,394.12143 C 92.477954,392.08691 102.55297,390.87374 111.86526,388.96453 L 111.86526,388.96453 z"
       id="path5815"
       style="fill:#965046;fill-rule:evenodd" />
    <path
       d="M 138.4375,402.90625 C 136.05118,402.88274 133.36113,403.02453 130.3125,403.375 C 116.06312,405.01295 101.07567,422.94924 103.375,439.40625 C 103.49482,439.61269 103.62912,439.79625 103.75,440 L 161.65625,440 C 163.9982,433.1781 164.74287,425.28801 163.09375,417.125 C 155.7912,419.07297 161.50526,403.13347 138.4375,402.90625 z"
       id="path5818"
       style="fill:#dc967d;fill-rule:evenodd" />
    <path
       d="M 152.15625,377.71875 C 145.01024,378.63718 126.8348,383.87768 112.03125,388.9375 C 106.49477,393.55552 97.489323,408.56317 94.6875,417.28125 C 96.829232,427.08312 97.392865,429.7284 103.375,439.40625 C 101.07567,422.94925 116.06312,405.01295 130.3125,403.375 C 162.83123,399.63666 155.03576,419.27448 163.09375,417.125 C 161.47131,403.69974 157.91232,388.11999 152.15625,377.71875 z"
       id="path5821"
       style="fill:#be6e5a;fill-rule:evenodd" />
    <path
       d="M 83.286396,395.52795 C 94.677121,394.19744 106.05105,390.88537 117.20797,388.27343 C 129.32079,385.43803 141.37806,382.38818 153.29195,378.7971 C 154.44807,378.44832 153.95462,376.63598 152.79203,376.98734 C 141.6687,380.3485 130.42136,383.22137 119.12106,385.91727 C 107.24076,388.75139 94.642243,390.71227 83.234726,395.14171 C 83.044837,395.21534 83.048713,395.55637 83.286396,395.52795 L 83.286396,395.52795 z"
       id="path6540"
       style="fill:#231f20" />
    <path
       d="M 95.645939,419.25367 C 97.052664,413.53506 98.859834,407.92754 101.8748,402.84188 C 104.9621,397.63481 109.79586,394.04759 113.22289,389.19446 C 113.59492,388.66742 112.87283,387.99312 112.35354,388.3251 C 102.30625,394.73223 95.968879,407.61364 95.467677,419.23042 C 95.46251,419.33247 95.621396,419.35314 95.645939,419.25367 L 95.645939,419.25367 z"
       id="path6548"
       style="fill:#231f20" />
    <path
       d="M 153,378.28125 C 152.88019,378.29772 152.77544,378.38657 152.78125,378.53125 C 153.0396,384.98747 157.49106,391.97469 159.46875,398.09375 C 162.99525,409.00524 163.25162,419.93112 161.5,431.1875 C 161.04331,434.12188 160.47786,437.09281 159.6875,440 L 161.9375,440 C 162.25752,438.90442 162.56221,437.81434 162.8125,436.6875 C 164.93356,427.14398 165.67074,417.29511 164.0625,407.625 C 163.08465,401.74363 160.93362,395.9236 158.65625,390.4375 C 157.02475,386.50669 154.19581,382.63984 153.28125,378.46875 C 153.25089,378.32666 153.11981,378.26478 153,378.28125 z M 87.875,393.59375 C 87.189473,393.53793 86.506417,394.09174 86.71875,395 C 90.181958,409.84103 95.107722,424.97757 101.90625,438.625 C 102.13458,439.08346 102.38679,439.54216 102.625,440 L 105.59375,440 C 104.37562,437.73264 103.29149,435.46971 102.3125,433.34375 C 96.525427,420.77364 93.911814,407.18149 88.90625,394.375 C 88.709579,393.87219 88.286316,393.62724 87.875,393.59375 z"
       id="path6556"
       style="fill:#231f20" />
    <path
       d="M 167.52841,214.88201 C 183.30466,211.8748 199.4413,212.00397 216.83483,217.88664 C 243.33654,236.62876 259.98343,262.24174 257.25524,292.42755 C 252.07916,305.11779 250.12086,313.41217 239.16287,329.13028 C 223.21482,331.79905 181.94056,340.78969 170.86115,338.99027 C 159.45234,341.8541 133.46991,292.87063 131.76221,249.8667 C 135.60519,236.4182 145.32309,219.1151 167.52841,214.88201 L 167.52841,214.88201 z"
       id="path5878"
       style="fill:#ffffff;fill-rule:evenodd" />
    <path
       d="M 216.05073,226.05314 C 193.37004,222.73848 177.61575,228.69478 165.97184,236.24123 C 158.26134,241.23905 138.832,254.9291 134.37931,271.17167 C 133.47508,264.67154 131.16154,258.10553 132.09807,250.96857 C 144.9601,211.50406 200.67881,211.58803 216.05073,226.05314 L 216.05073,226.05314 z"
       id="path5884"
       style="fill:#b4b4b4;fill-rule:evenodd" />
    <path
       d="M 236.57419,301.4944 C 239.85913,317.11822 229.91388,331.43478 214.37144,333.4538 C 198.8303,335.47281 183.55138,324.42957 180.26515,308.80705 C 176.98021,293.18323 186.92546,278.86538 202.4666,276.84766 C 218.00904,274.82864 233.28795,285.87059 236.57419,301.4944 L 236.57419,301.4944 z"
       id="path5893"
       style="fill:#5f8291" />
    <path
       d="M 179.897,207.83288 C 160.52579,208.14937 137.96394,213.71684 128.67878,241.9676 C 130.30123,252.65819 134.45682,256.51538 138.07632,250.39632 C 141.49044,242.57602 145.95476,230.75643 156.83911,225.46539 C 164.03292,220.79955 168.93385,219.79973 186.77561,218.94201 C 207.80285,219.3037 209.35813,223.10922 214.77447,225.82062 C 195.77142,220.92227 190.45196,224.1775 182.73887,228.56561 C 176.77094,232.31041 172.75487,235.06573 172.14645,242.71036 C 175.52311,236.25415 181.05441,233.2366 188.5647,233.86181 C 196.31525,234.50769 201.53783,242.20657 202.12816,255.17583 C 202.77404,269.38517 192.57819,271.84984 187.27294,271.96868 C 181.75326,270.509 176.32916,272.7192 173.08297,256.14465 C 173.30386,248.05436 168.55019,246.49779 167.39924,251.46202 C 165.54686,266.99025 163.57692,286.12894 168.56182,305.26375 C 172.18649,319.28062 183.09539,330.37166 193.59868,336.65219 C 186.31058,336.26079 182.95847,340.81294 170.38966,338.8766 C 173.26511,344.35753 192.5924,337.54092 211.60321,334.73522 C 231.65646,329.59402 237.01855,332.47206 242.14812,328.72338 C 239.01819,327.67059 233.53855,329.49068 231.49112,328.91068 C 249.59123,313.32691 250.99021,291.82043 249.97618,268.22259 C 255.61729,273.79136 252.25355,286.2284 257.72673,286.72702 C 259.05853,276.81149 259.0482,268.04174 254.52963,256.3707 C 250.55747,240.12684 229.49923,214.05787 195.07645,208.41418 C 190.51267,208.05894 185.32109,207.74505 179.897,207.83288 L 179.897,207.83288 z M 224.52725,284.56333 C 229.79375,288.81967 233.73619,294.86768 235.18425,301.87289 C 238.2806,316.85083 228.90631,330.58609 214.25777,332.51985 C 199.61052,334.45491 185.19062,323.85862 182.09428,308.88068 C 181.09704,304.06113 181.39286,299.36688 182.74016,295.15575 C 183.18582,298.02216 184.27735,300.89503 186.06644,303.61676 C 192.82362,313.90045 206.95029,317.99532 217.58534,312.75595 C 228.22039,307.51529 231.35032,294.9439 224.59313,284.66021 C 224.57117,284.62792 224.54792,284.59562 224.52725,284.56333 L 224.52725,284.56333 z"
       id="path5905"
       style="fill:#332e24;fill-rule:evenodd" />
    <path
       d="M 187.37499,312.04678 C 201.74967,325.16071 223.05723,323.51501 232.89009,304.92919 C 232.67178,319.10107 224.65126,328.33456 214.96695,329.8175 C 202.99235,331.65308 191.17534,325.69291 187.37499,312.04678 L 187.37499,312.04678 z"
       id="path5899"
       style="fill:#91b4c3;fill-rule:evenodd" />
    <path
       d="M 10.5625,244.71875 C 6.7524258,244.63822 3.2154536,245.15983 0,246.09375 L 0,347.28125 C 4.7418139,353.31946 9.9975351,357.85687 15.53125,359.0625 C 31.080145,359.56499 43.200752,359.62097 59.03125,353.25 C 62.963362,350.24666 61.730975,335.62287 61.46875,328.1875 C 58.586837,314.21067 54.46484,295.82194 46.15625,270.125 C 40.165075,261.46505 35.454341,250.58226 25.34375,247.84375 C 20.076202,245.77048 15.12007,244.81508 10.5625,244.71875 z"
       id="path5881"
       style="fill:#ffffff;fill-rule:evenodd" />
    <path
       d="M 6.375,249.21875 C 4.1954014,249.1761 2.0507931,249.43821 0,250 L 0,269.3125 C 1.6383139,268.58392 3.4675381,267.94126 5.53125,267.375 C 11.540509,253.88516 22.6613,256.31974 26.0625,257.0625 C 19.7676,252.08439 12.870207,249.34585 6.375,249.21875 z"
       id="path5887"
       style="fill:#b4b4b4;fill-rule:evenodd" />
    <path
       d="M 53.119964,320.04147 C 59.197687,334.27923 56.155596,349.62403 46.330483,354.29244 C 36.505369,358.95956 23.59812,351.19351 17.521689,336.95446 C 11.445258,322.71541 14.486057,307.3732 24.311171,302.70349 C 34.136284,298.03637 47.042242,305.80242 53.119964,320.04147 L 53.119964,320.04147 z"
       id="path5890"
       style="fill:#5f8291" />
    <path
       d="M 8.125,238.65625 C 5.3911262,238.63486 2.6626475,238.85821 0,239.375 L 0,251.09375 C 1.343993,250.77636 2.7875955,250.55199 4.375,250.375 C 11.200651,250.66435 19.056636,251.83284 24.1875,255.84375 C 16.808978,255.24437 11.808989,257.2448 8.4375,261.15625 C 6.1420458,264.83001 5.2753763,269.85677 5.84375,277.1875 C 9.3250388,267.23578 10.003061,264.26561 18.53125,263.9375 C 26.469104,263.62748 26.850583,272.62812 28.03125,281 C 27.491295,283.99947 27.546436,292.92985 20.8125,295.71875 C 14.252951,296.58811 10.114303,297.12611 5.84375,280.8125 C 4.3168919,287.18216 3.2596274,292.2297 3.8125,298.8125 C 8.5752127,328.61853 13.296534,339.21809 19.28125,347.28125 C 23.209486,352.67433 26.927566,355.53199 31.875,357.90625 L 19.90625,359 C 10.472539,358.00018 19.965602,360.25302 20.875,360.46875 C 24.127648,360.65733 31.200104,359.38268 42.0625,358.0625 C 56.132333,356.45683 59.20385,356.02526 58.96875,352.34375 C 56.714633,353.74531 54.904426,354.53701 54.1875,352 C 58.934711,345.53087 60.012939,335.94272 61.46875,325.84375 C 62.220554,301.76667 46.764328,255.47472 35.6875,247.75 C 28.732674,242.36983 18.398354,238.73634 8.125,238.65625 z M 51,318.0625 C 51.428865,318.91507 51.874099,319.74685 52.25,320.65625 C 57.918238,334.37343 55.068691,349.18959 45.90625,353.6875 C 36.743808,358.18541 24.698194,350.68593 19.03125,336.96875 C 17.147867,332.41144 16.241506,327.75148 16.15625,323.375 C 16.963598,325.72214 18.152343,328.01918 19.78125,330.09375 C 26.600442,338.77953 38.101605,340.70591 45.4375,334.375 C 49.983197,330.45194 51.842226,324.25648 51,318.0625 z"
       id="path5902"
       style="fill:#332e24;fill-rule:evenodd" />
    <path
       d="M 21.973088,337.6688 C 35.025014,349.94697 49.988742,346.04069 52.078807,330.07326 C 54.766956,340.0986 50.349143,351.20643 42.192981,352.94643 C 33.849514,354.72647 26.049878,346.37784 21.973088,337.6688 L 21.973088,337.6688 z"
       id="path5896"
       style="fill:#91b4c3;fill-rule:evenodd" />
    <path
       d="M 251.94123,344.0049 C 254.78636,354.00831 241.07764,366.67264 221.32197,372.29146 C 201.56629,377.91028 183.24471,374.35586 180.39959,364.35244 C 177.55446,354.34902 191.26318,341.68469 211.01885,336.06588 C 230.77453,330.44706 249.09611,334.00148 251.94123,344.0049 z"
       id="path15995"
       style="fill:url(#radialGradient6004);fill-opacity:1;stroke:none;stroke-width:20;stroke-linecap:round;stroke-linejoin:round;stroke-miterlimit:4;stroke-dasharray:none;stroke-dashoffset:31.20000496;stroke-opacity:1" />
    <path
       d="M 73.901708,368.65257 C 75.639228,378.31473 61.437907,388.90404 42.182174,392.30444 C 22.926441,395.70485 5.9080421,390.62868 4.1705219,380.96651 C 2.4330016,371.30435 16.634322,360.71504 35.890055,357.31463 C 55.145788,353.91423 72.164188,358.9904 73.901708,368.65257 z"
       id="path16890"
       style="fill:url(#radialGradient6001);fill-opacity:1;stroke:none;stroke-width:20;stroke-linecap:round;stroke-linejoin:round;stroke-miterlimit:4;stroke-dasharray:none;stroke-dashoffset:31.20000496;stroke-opacity:1" />
    <path
       d="M 356.71875,0 C 357.39765,2.9947938 357.97724,5.7626671 358.375,8.1875 C 359.50448,15.073075 358.43162,34.224208 374.25,33.09375 C 380.26198,29.923572 382.79547,19.465563 384.875,14.75 C 385.99418,10.867803 391.93338,3.5094767 396,3.09375 C 404.75486,6.2610252 425.93777,44.535883 411.3125,84.375 C 393.57017,91.189021 389.74726,72.41615 384.84375,76.75 C 374.024,82.981442 376.05512,100.57079 378.0625,113.5 C 380.54623,131.02959 387.02808,144.63209 391.84375,153.5 C 395.74359,156.3871 404.37737,151.92916 409.5625,152.84375 C 409.60643,152.69001 409.89606,152.44174 410.25,152.15625 C 411.66448,152.34486 413.35658,152.50061 415.125,152.25 C 424.20047,152.39331 432.89103,149.12083 440,148.46875 L 440,0 L 356.71875,0 z"
       id="path6067"
       style="fill:#e6e6e6;fill-rule:evenodd" />
    <path
       d="M 368.46875,0 C 370.76682,8.2773168 373.39547,13.754841 375.4375,13.1875 C 381.95273,14.019661 382.74389,13.969931 385.34375,14.90625 C 384.13337,8.7264778 395.76261,-0.25357173 401.25,1.90625 C 423.6775,-7.0598454 455.95644,95.425545 402.125,91.8125 C 399.32318,90.43032 393.22876,89.27938 388.78125,93.28125 C 382.32246,101.8934 400.84376,143.21875 400.84375,143.21875 C 400.84375,143.21875 409.45063,150.10104 414.1875,148.40625 C 416.58888,147.54723 407.31723,152.26024 401.71875,154.84375 C 402.97045,154.26634 411.78454,152.85843 415.125,152.25 C 422.9409,150.82724 432.23561,149.57557 440,148.5625 L 440,0 L 368.46875,0 z"
       id="path6070"
       style="fill:#b3b3b3;fill-rule:evenodd" />
    <path
       d="M 354.8125,0 C 355.06468,1.6510409 355.2823,3.3276363 355.46875,5 C 356.46858,13.971261 357.38399,27.676416 366,32.96875 C 369.61305,35.189281 374.78224,34.549434 378,31.9375 C 381.66474,28.962579 383.38431,24.19464 384.875,19.875 C 386.8062,14.279104 390.25945,0.21157755 398.9375,6.15625 C 402.02739,8.2721498 403.89261,12.356055 405.28125,15.6875 C 407.25376,20.4205 408.54122,25.43581 409.625,30.4375 C 411.76801,40.338826 412.92452,50.557533 413.09375,60.6875 C 413.14672,63.839388 412.94309,66.898488 412.5,70 C 412.02463,73.336611 411.28178,84.155258 406.625,84.03125 C 399.86264,83.850406 394.42896,78.808794 389.125,75.25 C 385.05982,72.523096 380.36459,74.284851 377.59375,78.15625 C 373.63064,83.695309 373.84494,91.389082 374.15625,97.875 C 374.61095,107.31904 375.76521,116.65652 378.15625,125.8125 C 380.22824,133.74648 382.74528,142.52818 387.53125,149.3125 C 390.43257,153.42417 394.42498,155.69763 399.375,156.3125 C 404.95281,157.00617 411.03715,155.64549 416.5,154.625 C 422.41108,153.52184 428.21597,151.96275 434.21875,151.375 C 436.00694,151.1998 438.01488,151.07238 440,151.1875 L 440,147.4375 C 438.77215,147.37023 437.59024,147.3709 436.46875,147.40625 C 430.39363,147.59614 424.35375,149.06748 418.4375,150.34375 C 412.81576,151.55541 406.95393,152.69863 401.1875,152.625 C 395.27775,152.54751 391.59648,149.16206 388.84375,144.1875 C 384.25414,135.8944 381.77592,125.79986 379.96875,116.5625 C 378.252,107.79534 377.36316,98.218928 378,89.28125 C 378.2997,85.057205 381.1679,74.676643 387.1875,78.53125 C 392.53924,81.958284 397.15385,85.993313 403.53125,87.4375 C 409.58186,88.80806 412.3754,85.956141 414.21875,80.46875 C 415.65646,76.183989 416.28473,71.43282 416.71875,66.9375 C 417.53901,58.432564 416.4686,49.510846 415.3125,41.09375 C 413.91997,30.954738 411.95476,20.515782 407.4375,11.25 C 404.40316,5.0301846 398.82279,-1.0288202 391.3125,1.71875 C 387.24991,3.2055625 385.25773,7.5429013 383.78125,11.28125 C 381.9043,16.033628 380.83814,21.09714 378.34375,25.59375 C 376.16199,29.528445 371.73956,32.010435 367.5,29.40625 C 363.2863,26.817569 361.91147,20.201647 360.9375,15.78125 C 359.79171,10.590966 359.3091,5.304209 358.71875,0.03125 C 358.71761,0.021009872 358.7199,0.010240003 358.71875,0 L 354.8125,0 z"
       id="path6403"
       style="fill:#231f20" />
    <path
       d="M 367.71875,0 C 367.87484,0.5243101 368.04873,1.0419962 368.21875,1.5625 C 369.62291,5.8588894 371.67851,12.771402 375.21875,13.40625 C 375.46324,13.450089 375.5451,13.087028 375.3125,13.03125 C 372.1637,12.276048 369.87785,5.1105808 368.5,0 L 367.71875,0 z"
       id="path6419"
       style="fill:#231f20" />
    <path
       d="M 388.66192,92.414285 C 387.62207,103.64742 390.93412,115.92816 394.64276,126.40432 C 397.05836,133.22868 403.05858,148.4288 412.73771,146.21473 C 412.96508,146.16306 412.90566,145.8272 412.68477,145.82074 C 402.2848,145.51976 397.64094,131.35434 394.96053,123.3519 C 391.72211,113.67534 388.95386,102.68635 388.91123,92.412992 C 388.91123,92.250231 388.67613,92.25669 388.66192,92.414285 L 388.66192,92.414285 z"
       id="path6427"
       style="fill:#231f20" />
    <path
       d="M 419.31645,89.212985 C 434.57469,80.732592 433.06979,57.360808 430.37906,42.885366 C 428.6171,33.405151 425.51818,24.064447 420.9841,15.54401 C 419.14336,12.087263 416.96804,8.7894046 414.37288,5.8519464 C 413.26585,4.5976508 412.03222,3.4802787 410.70948,2.4597901 C 409.98995,1.9043322 404.28297,-0.44925066 402.50162,-0.25677678 C 402.12185,-0.21544083 402.11182,0.2736169 402.50162,0.34905657 C 409.98651,1.7974913 412.91967,6.0160001 414.51627,7.940719 C 417.02098,10.960852 419.01159,14.411136 420.78518,17.897593 C 424.81806,25.830281 427.47003,34.505729 429.18937,43.216056 C 432.02091,57.563614 433.82936,80.138384 419.27383,89.143229 C 419.22731,89.169066 419.26738,89.23882 419.31645,89.212985 L 419.31645,89.212985 z"
       id="path6443"
       style="fill:#231f20" />
    <path
       d="M 440,3.84375 C 435.9653,5.1293589 432.91099,6.2265902 432.625,6.8125 C 431.95171,7.9156842 436.83963,11.317001 440,12.1875 L 440,3.84375 z M 440,47.40625 C 439.56023,47.717172 439.1499,48.032188 438.6875,48.34375 C 437.50161,49.172899 436.67886,52.499706 440,50.8125 L 440,47.40625 z"
       id="path18242"
       style="fill:#000000;fill-opacity:1;fill-rule:evenodd;stroke:none;stroke-width:5;stroke-linecap:round;stroke-linejoin:round;stroke-miterlimit:4;stroke-dasharray:none;stroke-opacity:1" />
    <path
       d="M 0,430 L 0,433.59375 C 1.6330675,434.6556 3.3563794,435.56042 5.15625,436.25 C 7.0370503,436.96952 7.8624677,433.90338 5.96875,433.21875 C 3.8540224,432.45541 1.8756019,431.33425 0,430 z"
       id="path6345"
       style="fill:#231f20" />
  </g>
</svg>
